<mxfile host="app.diagrams.net" modified="2023-10-24T13:31:35.465Z" agent="Mozilla/5.0 (Windows NT 10.0; Win64; x64) AppleWebKit/537.36 (KHTML, like Gecko) Chrome/116.0.0.0 Safari/537.36 OPR/102.0.0.0" etag="THbh_vSG57LDm9nWWaOi" version="22.0.6" type="github">
  <diagram name="Page-1" id="qCbiCtCmta1U4lk98ggv">
    <mxGraphModel dx="1785" dy="1066" grid="1" gridSize="10" guides="1" tooltips="1" connect="1" arrows="1" fold="1" page="1" pageScale="1" pageWidth="1169" pageHeight="827" math="0" shadow="0">
      <root>
        <mxCell id="0" />
        <mxCell id="1" parent="0" />
        <mxCell id="1phJu-JfidZKx7qHD-fS-1" style="edgeStyle=orthogonalEdgeStyle;shape=connector;rounded=0;orthogonalLoop=1;jettySize=auto;html=1;exitX=1;exitY=0.5;exitDx=0;exitDy=0;exitPerimeter=0;labelBackgroundColor=default;strokeColor=default;align=center;verticalAlign=middle;fontFamily=Helvetica;fontSize=11;fontColor=default;endArrow=none;endFill=0;" edge="1" parent="1" source="1phJu-JfidZKx7qHD-fS-3">
          <mxGeometry relative="1" as="geometry">
            <mxPoint x="-440" y="285" as="targetPoint" />
          </mxGeometry>
        </mxCell>
        <mxCell id="1phJu-JfidZKx7qHD-fS-2" style="edgeStyle=orthogonalEdgeStyle;shape=connector;rounded=0;orthogonalLoop=1;jettySize=auto;html=1;exitX=0;exitY=0.25;exitDx=0;exitDy=0;exitPerimeter=0;labelBackgroundColor=default;strokeColor=default;align=center;verticalAlign=middle;fontFamily=Helvetica;fontSize=11;fontColor=default;endArrow=none;endFill=0;" edge="1" parent="1" source="1phJu-JfidZKx7qHD-fS-3">
          <mxGeometry relative="1" as="geometry">
            <mxPoint x="-563" y="240" as="targetPoint" />
          </mxGeometry>
        </mxCell>
        <mxCell id="1phJu-JfidZKx7qHD-fS-3" value="" style="verticalLabelPosition=bottom;shadow=0;dashed=0;align=center;html=1;verticalAlign=top;shape=mxgraph.electrical.logic_gates.logic_gate;operation=and;negating=1;negSize=0.15;" vertex="1" parent="1">
          <mxGeometry x="-563" y="255" width="100" height="60" as="geometry" />
        </mxCell>
        <mxCell id="1phJu-JfidZKx7qHD-fS-4" style="edgeStyle=orthogonalEdgeStyle;shape=connector;rounded=0;orthogonalLoop=1;jettySize=auto;html=1;exitX=0;exitY=0.75;exitDx=0;exitDy=0;exitPerimeter=0;labelBackgroundColor=default;strokeColor=default;align=center;verticalAlign=middle;fontFamily=Helvetica;fontSize=11;fontColor=default;endArrow=none;endFill=0;" edge="1" parent="1" source="1phJu-JfidZKx7qHD-fS-5">
          <mxGeometry relative="1" as="geometry">
            <mxPoint x="-564" y="230" as="targetPoint" />
          </mxGeometry>
        </mxCell>
        <mxCell id="1phJu-JfidZKx7qHD-fS-11" style="edgeStyle=orthogonalEdgeStyle;rounded=0;orthogonalLoop=1;jettySize=auto;html=1;exitX=1;exitY=0.5;exitDx=0;exitDy=0;exitPerimeter=0;endArrow=none;endFill=0;" edge="1" parent="1" source="1phJu-JfidZKx7qHD-fS-5">
          <mxGeometry relative="1" as="geometry">
            <mxPoint x="-400" y="185" as="targetPoint" />
          </mxGeometry>
        </mxCell>
        <mxCell id="1phJu-JfidZKx7qHD-fS-5" value="" style="verticalLabelPosition=bottom;shadow=0;dashed=0;align=center;html=1;verticalAlign=top;shape=mxgraph.electrical.logic_gates.logic_gate;operation=and;negating=1;negSize=0.15;" vertex="1" parent="1">
          <mxGeometry x="-564" y="155" width="100" height="60" as="geometry" />
        </mxCell>
        <mxCell id="1phJu-JfidZKx7qHD-fS-6" value="" style="endArrow=none;html=1;rounded=0;labelBackgroundColor=default;strokeColor=default;align=center;verticalAlign=middle;fontFamily=Helvetica;fontSize=11;fontColor=default;shape=connector;" edge="1" parent="1">
          <mxGeometry width="50" height="50" relative="1" as="geometry">
            <mxPoint x="-563" y="240" as="sourcePoint" />
            <mxPoint x="-440" y="210" as="targetPoint" />
          </mxGeometry>
        </mxCell>
        <mxCell id="1phJu-JfidZKx7qHD-fS-7" value="" style="endArrow=none;html=1;rounded=0;labelBackgroundColor=default;strokeColor=default;align=center;verticalAlign=middle;fontFamily=Helvetica;fontSize=11;fontColor=default;shape=connector;" edge="1" parent="1">
          <mxGeometry width="50" height="50" relative="1" as="geometry">
            <mxPoint x="-564" y="230" as="sourcePoint" />
            <mxPoint x="-440" y="260" as="targetPoint" />
          </mxGeometry>
        </mxCell>
        <mxCell id="1phJu-JfidZKx7qHD-fS-8" value="" style="endArrow=none;html=1;rounded=0;labelBackgroundColor=default;strokeColor=default;align=center;verticalAlign=middle;fontFamily=Helvetica;fontSize=11;fontColor=default;shape=connector;" edge="1" parent="1">
          <mxGeometry width="50" height="50" relative="1" as="geometry">
            <mxPoint x="-440" y="210" as="sourcePoint" />
            <mxPoint x="-440" y="185" as="targetPoint" />
          </mxGeometry>
        </mxCell>
        <mxCell id="1phJu-JfidZKx7qHD-fS-9" value="" style="endArrow=none;html=1;rounded=0;labelBackgroundColor=default;strokeColor=default;align=center;verticalAlign=middle;fontFamily=Helvetica;fontSize=11;fontColor=default;shape=connector;" edge="1" parent="1">
          <mxGeometry width="50" height="50" relative="1" as="geometry">
            <mxPoint x="-440" y="285" as="sourcePoint" />
            <mxPoint x="-440" y="260" as="targetPoint" />
          </mxGeometry>
        </mxCell>
        <mxCell id="1phJu-JfidZKx7qHD-fS-25" style="edgeStyle=orthogonalEdgeStyle;shape=connector;rounded=0;orthogonalLoop=1;jettySize=auto;html=1;exitX=0;exitY=0.5;exitDx=0;exitDy=0;exitPerimeter=0;labelBackgroundColor=default;strokeColor=default;align=center;verticalAlign=middle;fontFamily=Helvetica;fontSize=11;fontColor=default;endArrow=none;endFill=0;" edge="1" parent="1" source="1phJu-JfidZKx7qHD-fS-13">
          <mxGeometry relative="1" as="geometry">
            <mxPoint x="-736.1428571428571" y="155" as="targetPoint" />
          </mxGeometry>
        </mxCell>
        <mxCell id="1phJu-JfidZKx7qHD-fS-13" value="" style="verticalLabelPosition=bottom;shadow=0;dashed=0;align=center;html=1;verticalAlign=top;shape=mxgraph.electrical.logic_gates.inverter_2;fontFamily=Helvetica;fontSize=11;fontColor=default;rotation=90;" vertex="1" parent="1">
          <mxGeometry x="-788" y="203" width="104" height="59" as="geometry" />
        </mxCell>
        <mxCell id="1phJu-JfidZKx7qHD-fS-15" value="" style="verticalLabelPosition=bottom;shadow=0;dashed=0;align=center;html=1;verticalAlign=top;shape=mxgraph.electrical.logic_gates.logic_gate;operation=and;negating=1;negSize=0.15;fontFamily=Helvetica;fontSize=11;fontColor=default;" vertex="1" parent="1">
          <mxGeometry x="-684" y="270" width="100" height="60" as="geometry" />
        </mxCell>
        <mxCell id="1phJu-JfidZKx7qHD-fS-20" style="edgeStyle=orthogonalEdgeStyle;shape=connector;rounded=0;orthogonalLoop=1;jettySize=auto;html=1;exitX=1;exitY=0.5;exitDx=0;exitDy=0;exitPerimeter=0;labelBackgroundColor=default;strokeColor=default;align=center;verticalAlign=middle;fontFamily=Helvetica;fontSize=11;fontColor=default;endArrow=none;endFill=0;entryX=0;entryY=0.25;entryDx=0;entryDy=0;entryPerimeter=0;" edge="1" parent="1" source="1phJu-JfidZKx7qHD-fS-16" target="1phJu-JfidZKx7qHD-fS-5">
          <mxGeometry relative="1" as="geometry">
            <mxPoint x="-570" y="170" as="targetPoint" />
          </mxGeometry>
        </mxCell>
        <mxCell id="1phJu-JfidZKx7qHD-fS-26" style="edgeStyle=orthogonalEdgeStyle;shape=connector;rounded=0;orthogonalLoop=1;jettySize=auto;html=1;exitX=0;exitY=0.75;exitDx=0;exitDy=0;exitPerimeter=0;labelBackgroundColor=default;strokeColor=default;align=center;verticalAlign=middle;fontFamily=Helvetica;fontSize=11;fontColor=default;endArrow=none;endFill=0;" edge="1" parent="1" source="1phJu-JfidZKx7qHD-fS-16">
          <mxGeometry relative="1" as="geometry">
            <mxPoint x="-780" y="315" as="targetPoint" />
          </mxGeometry>
        </mxCell>
        <mxCell id="1phJu-JfidZKx7qHD-fS-16" value="" style="verticalLabelPosition=bottom;shadow=0;dashed=0;align=center;html=1;verticalAlign=top;shape=mxgraph.electrical.logic_gates.logic_gate;operation=and;negating=1;negSize=0.15;fontFamily=Helvetica;fontSize=11;fontColor=default;" vertex="1" parent="1">
          <mxGeometry x="-684" y="140" width="100" height="60" as="geometry" />
        </mxCell>
        <mxCell id="1phJu-JfidZKx7qHD-fS-17" value="" style="verticalLabelPosition=bottom;shadow=0;dashed=0;align=center;html=1;verticalAlign=top;shape=mxgraph.electrical.logic_gates.inverting_contact;fontFamily=Helvetica;fontSize=11;fontColor=default;" vertex="1" parent="1">
          <mxGeometry x="-824" y="150" width="10" height="10" as="geometry" />
        </mxCell>
        <mxCell id="1phJu-JfidZKx7qHD-fS-19" value="" style="verticalLabelPosition=bottom;shadow=0;dashed=0;align=center;html=1;verticalAlign=top;shape=mxgraph.electrical.logic_gates.inverting_contact;fontFamily=Helvetica;fontSize=11;fontColor=default;" vertex="1" parent="1">
          <mxGeometry x="-824" y="310" width="10" height="10" as="geometry" />
        </mxCell>
        <mxCell id="1phJu-JfidZKx7qHD-fS-21" style="edgeStyle=orthogonalEdgeStyle;shape=connector;rounded=0;orthogonalLoop=1;jettySize=auto;html=1;exitX=1;exitY=0.5;exitDx=0;exitDy=0;exitPerimeter=0;entryX=0;entryY=0.75;entryDx=0;entryDy=0;entryPerimeter=0;labelBackgroundColor=default;strokeColor=default;align=center;verticalAlign=middle;fontFamily=Helvetica;fontSize=11;fontColor=default;endArrow=none;endFill=0;" edge="1" parent="1" source="1phJu-JfidZKx7qHD-fS-15" target="1phJu-JfidZKx7qHD-fS-3">
          <mxGeometry relative="1" as="geometry" />
        </mxCell>
        <mxCell id="1phJu-JfidZKx7qHD-fS-22" style="edgeStyle=orthogonalEdgeStyle;shape=connector;rounded=0;orthogonalLoop=1;jettySize=auto;html=1;exitX=0;exitY=0.25;exitDx=0;exitDy=0;exitPerimeter=0;entryX=1;entryY=0.5;entryDx=0;entryDy=0;entryPerimeter=0;labelBackgroundColor=default;strokeColor=default;align=center;verticalAlign=middle;fontFamily=Helvetica;fontSize=11;fontColor=default;endArrow=none;endFill=0;" edge="1" parent="1" source="1phJu-JfidZKx7qHD-fS-15" target="1phJu-JfidZKx7qHD-fS-13">
          <mxGeometry relative="1" as="geometry">
            <Array as="points">
              <mxPoint x="-704" y="285" />
              <mxPoint x="-704" y="284" />
            </Array>
          </mxGeometry>
        </mxCell>
        <mxCell id="1phJu-JfidZKx7qHD-fS-23" style="edgeStyle=orthogonalEdgeStyle;shape=connector;rounded=0;orthogonalLoop=1;jettySize=auto;html=1;exitX=0;exitY=0.25;exitDx=0;exitDy=0;exitPerimeter=0;entryX=0.9;entryY=0.5;entryDx=0;entryDy=0;entryPerimeter=0;labelBackgroundColor=default;strokeColor=default;align=center;verticalAlign=middle;fontFamily=Helvetica;fontSize=11;fontColor=default;endArrow=none;endFill=0;" edge="1" parent="1" source="1phJu-JfidZKx7qHD-fS-16" target="1phJu-JfidZKx7qHD-fS-17">
          <mxGeometry relative="1" as="geometry" />
        </mxCell>
        <mxCell id="1phJu-JfidZKx7qHD-fS-24" style="edgeStyle=orthogonalEdgeStyle;shape=connector;rounded=0;orthogonalLoop=1;jettySize=auto;html=1;exitX=0;exitY=0.75;exitDx=0;exitDy=0;exitPerimeter=0;entryX=0.9;entryY=0.5;entryDx=0;entryDy=0;entryPerimeter=0;labelBackgroundColor=default;strokeColor=default;align=center;verticalAlign=middle;fontFamily=Helvetica;fontSize=11;fontColor=default;endArrow=none;endFill=0;" edge="1" parent="1" source="1phJu-JfidZKx7qHD-fS-15" target="1phJu-JfidZKx7qHD-fS-19">
          <mxGeometry relative="1" as="geometry" />
        </mxCell>
        <mxCell id="1phJu-JfidZKx7qHD-fS-27" value="D" style="text;html=1;align=center;verticalAlign=middle;resizable=0;points=[];autosize=1;strokeColor=none;fillColor=none;fontSize=11;fontFamily=Helvetica;fontColor=default;" vertex="1" parent="1">
          <mxGeometry x="-834" y="130" width="30" height="30" as="geometry" />
        </mxCell>
        <mxCell id="1phJu-JfidZKx7qHD-fS-28" value="CLK" style="text;html=1;align=center;verticalAlign=middle;resizable=0;points=[];autosize=1;strokeColor=none;fillColor=none;fontSize=11;fontFamily=Helvetica;fontColor=default;" vertex="1" parent="1">
          <mxGeometry x="-839" y="290" width="40" height="30" as="geometry" />
        </mxCell>
        <mxCell id="1phJu-JfidZKx7qHD-fS-31" style="edgeStyle=orthogonalEdgeStyle;shape=connector;rounded=0;orthogonalLoop=1;jettySize=auto;html=1;exitX=0.1;exitY=0.5;exitDx=0;exitDy=0;exitPerimeter=0;labelBackgroundColor=default;strokeColor=default;align=center;verticalAlign=middle;fontFamily=Helvetica;fontSize=11;fontColor=default;endArrow=none;endFill=0;" edge="1" parent="1" source="1phJu-JfidZKx7qHD-fS-29">
          <mxGeometry relative="1" as="geometry">
            <mxPoint x="-400" y="185" as="targetPoint" />
          </mxGeometry>
        </mxCell>
        <mxCell id="1phJu-JfidZKx7qHD-fS-29" value="" style="verticalLabelPosition=bottom;shadow=0;dashed=0;align=center;html=1;verticalAlign=top;shape=mxgraph.electrical.logic_gates.inverting_contact;fontFamily=Helvetica;fontSize=11;fontColor=default;" vertex="1" parent="1">
          <mxGeometry x="-370" y="180" width="10" height="10" as="geometry" />
        </mxCell>
        <mxCell id="1phJu-JfidZKx7qHD-fS-32" style="edgeStyle=orthogonalEdgeStyle;shape=connector;rounded=0;orthogonalLoop=1;jettySize=auto;html=1;exitX=0.1;exitY=0.5;exitDx=0;exitDy=0;exitPerimeter=0;labelBackgroundColor=default;strokeColor=default;align=center;verticalAlign=middle;fontFamily=Helvetica;fontSize=11;fontColor=default;endArrow=none;endFill=0;" edge="1" parent="1" source="1phJu-JfidZKx7qHD-fS-30">
          <mxGeometry relative="1" as="geometry">
            <mxPoint x="-440" y="285" as="targetPoint" />
          </mxGeometry>
        </mxCell>
        <mxCell id="1phJu-JfidZKx7qHD-fS-30" value="" style="verticalLabelPosition=bottom;shadow=0;dashed=0;align=center;html=1;verticalAlign=top;shape=mxgraph.electrical.logic_gates.inverting_contact;fontFamily=Helvetica;fontSize=11;fontColor=default;" vertex="1" parent="1">
          <mxGeometry x="-370" y="280" width="10" height="10" as="geometry" />
        </mxCell>
        <mxCell id="1phJu-JfidZKx7qHD-fS-33" value="Q&#39;" style="text;html=1;align=center;verticalAlign=middle;resizable=0;points=[];autosize=1;strokeColor=none;fillColor=none;fontSize=11;fontFamily=Helvetica;fontColor=default;" vertex="1" parent="1">
          <mxGeometry x="-380" y="260" width="30" height="30" as="geometry" />
        </mxCell>
        <mxCell id="1phJu-JfidZKx7qHD-fS-34" value="Q" style="text;html=1;align=center;verticalAlign=middle;resizable=0;points=[];autosize=1;strokeColor=none;fillColor=none;fontSize=11;fontFamily=Helvetica;fontColor=default;" vertex="1" parent="1">
          <mxGeometry x="-380" y="160" width="30" height="30" as="geometry" />
        </mxCell>
      </root>
    </mxGraphModel>
  </diagram>
</mxfile>
